HIERARCHY
ROOT Hips
{
	OFFSET 56.877701 -32.693596 43.373703
	CHANNELS 6 Xposition Yposition Zposition Zrotation Xrotation Yrotation
	JOINT Chest
	{
		OFFSET -0.779999 1.005800 5.403099
		CHANNELS 6 Xposition Yposition Zposition Zrotation Xrotation Yrotation
		JOINT Chest2
		{
			OFFSET 0.000000 0.000000 4.236801
			CHANNELS 6 Xposition Yposition Zposition Zrotation Xrotation Yrotation
			JOINT Neck
			{
				OFFSET 0.000000 0.000000 9.874401
				CHANNELS 6 Xposition Yposition Zposition Zrotation Xrotation Yrotation
				JOINT Head
				{
					OFFSET 0.000000 0.000002 2.173893
					CHANNELS 6 Xposition Yposition Zposition Zrotation Xrotation Yrotation
					End Site
					{
						OFFSET 0.000000 0.000000 6.508102
					}
				}
			}
			JOINT LeftCollar
			{
				OFFSET 2.681599 -0.377600 5.432499
				CHANNELS 6 Xposition Yposition Zposition Zrotation Xrotation Yrotation
				JOINT LeftShoulder
				{
					OFFSET 5.161499 0.000000 0.000000
					CHANNELS 6 Xposition Yposition Zposition Zrotation Xrotation Yrotation
					JOINT LeftElbow
					{
						OFFSET 0.000000 0.000000 -10.869099
						CHANNELS 6 Xposition Yposition Zposition Zrotation Xrotation Yrotation
						JOINT LeftWrist
						{
							OFFSET 0.000000 0.000000 -13.344799
							CHANNELS 6 Xposition Yposition Zposition Zrotation Xrotation Yrotation
							End Site
							{
								OFFSET 0.000000 0.000000 -2.173901
							}
						}
					}
				}
			}
			JOINT RightCollar
			{
				OFFSET -2.381901 -1.419600 6.136600
				CHANNELS 6 Xposition Yposition Zposition Zrotation Xrotation Yrotation
				JOINT RightShoulder
				{
					OFFSET -4.550499 0.000000 0.000000
					CHANNELS 6 Xposition Yposition Zposition Zrotation Xrotation Yrotation
					JOINT RightElbow
					{
						OFFSET 0.000000 0.000000 -11.106499
						CHANNELS 6 Xposition Yposition Zposition Zrotation Xrotation Yrotation
						JOINT RightWrist
						{
							OFFSET 0.000000 0.000000 -12.874298
							CHANNELS 6 Xposition Yposition Zposition Zrotation Xrotation Yrotation
							End Site
							{
								OFFSET 0.000000 0.000000 -2.173901
							}
						}
					}
				}
			}
		}
	}
	JOINT LeftHip
	{
		OFFSET 2.431900 0.469601 -2.489399
		CHANNELS 6 Xposition Yposition Zposition Zrotation Xrotation Yrotation
		JOINT LeftKnee
		{
			OFFSET 0.000000 -0.000004 -18.200201
			CHANNELS 6 Xposition Yposition Zposition Zrotation Xrotation Yrotation
			JOINT LeftAnkle
			{
				OFFSET 0.000000 0.000000 -16.279900
				CHANNELS 6 Xposition Yposition Zposition Zrotation Xrotation Yrotation
				End Site
				{
					OFFSET 0.000000 -8.394100 0.000000
				}
			}
		}
	}
	JOINT RightHip
	{
		OFFSET -1.987999 -0.073502 -2.713001
		CHANNELS 6 Xposition Yposition Zposition Zrotation Xrotation Yrotation
		JOINT RightKnee
		{
			OFFSET 0.000000 -0.000004 -19.547802
			CHANNELS 6 Xposition Yposition Zposition Zrotation Xrotation Yrotation
			JOINT RightAnkle
			{
				OFFSET 0.000000 0.000000 -14.881199
				CHANNELS 6 Xposition Yposition Zposition Zrotation Xrotation Yrotation
				End Site
				{
					OFFSET 0.000000 -7.922699 0.000000
				}
			}
		}
	}
}
MOTION
Frames: 4
Frame Time: 0.041667
39.929604 -27.403597 41.953403 4743.919800 22.684433 -3.247526 -0.779994 1.005798 5.403094 -22.202356 -16.331327 -4.904428 0.000004 -0.000004 4.236802 6.735059 -1.891602 -0.135843 -0.000002 0.000002 9.874393 -46.870510 -18.511073 15.024260 0.000008 0.000001 2.173888 -3.352822 2.876626 -6.499646 2.681592 -0.377596 5.432502 -0.205957 -3.628939 -40.621860 5.161505 0.000009 0.000006 118.017923 -129.547173 39.300871 -0.000004 0.000002 -10.869098 -7.017914 -6.073590 0.633675 0.000002 -0.000003 -13.344812 -33.032574 -14.963768 11.285309 -2.381896 -1.419598 6.136594 6.896012 7.851487 5.140921 -4.550508 -0.000005 -0.000007 -1258.117676 -534.420884 -440.382894 -0.000004 -0.000005 -11.106501 733.579802 -3.745675 720.343606 -0.000003 -0.000003 -12.874296 -332.106119 8.205778 -19.508187 2.431903 0.469599 -2.489399 29.471764 -38.303424 20.398227 -0.000001 -0.000001 -18.200195 -13.185969 46.036578 18.636683 -0.000009 -0.000003 -16.279898 9.567391 20.171833 -6.664259 -1.988000 -0.073498 -2.713003 -47.843132 -38.824079 -21.127858 -0.000004 -0.000006 -19.547800 -1845.793818 65.818879 59.782651 -0.000005 -0.000001 -14.881195 2175.651302 26.797175 -329.755686
39.763401 -27.270489 41.964203 4743.417535 23.299790 -2.927840 -0.779997 1.005799 5.403100 -21.852656 -16.537085 -5.203373 0.000005 0.000002 4.236805 6.520572 -1.758879 -0.145174 0.000002 0.000002 9.874403 -46.427186 -18.735566 15.361780 0.000007 0.000007 2.173902 -3.358090 2.762740 -6.561923 2.681600 -0.377597 5.432501 -0.291581 -3.334566 -40.312528 5.161507 0.000004 -0.000004 117.685525 -129.343265 38.904286 0.000002 -0.000001 -10.869089 -4.557582 -6.108951 0.822615 0.000005 -0.000005 -13.344792 -35.032109 -14.888416 11.316586 -2.381900 -1.419598 6.136592 7.063776 7.747356 5.441464 -4.550503 -0.000004 0.000005 -1258.027080 -534.755072 -440.512231 -0.000003 0.000002 -11.106499 735.018404 -3.853222 720.325574 0.000009 0.000002 -12.874285 -334.405925 8.264512 -18.768627 2.431903 0.469599 -2.489397 30.052142 -39.018108 20.861708 0.000001 -0.000003 -18.200199 -12.707774 45.828814 18.158135 0.000003 -0.000000 -16.279903 9.194291 20.439865 -6.167705 -1.988001 -0.073502 -2.712992 -46.732458 -38.613706 -20.436182 -0.000001 -0.000004 -19.547808 -1846.635953 64.031972 57.754427 0.000003 0.000001 -14.881197 2175.055272 26.566091 -330.056488
39.581497 -27.137897 41.978504 4742.937127 23.758279 -2.658628 -0.779995 1.005803 5.403095 -21.697025 -16.511941 -5.360965 -0.000000 -0.000004 4.236797 6.357350 -1.724067 -0.196361 0.000008 0.000003 9.874410 -45.787136 -18.888596 15.744363 0.000001 -0.000005 2.173890 -3.333325 2.562243 -6.581139 2.681604 -0.377598 5.432512 -0.164871 -3.387134 -40.251883 5.161506 0.000006 0.000004 117.198273 -128.818242 38.789792 -0.000010 0.000000 -10.869097 -1.751119 -6.336785 1.200852 0.000010 -0.000002 -13.344800 -37.485670 -14.620773 11.387040 -2.381894 -1.419592 6.136603 7.256276 7.681989 5.679140 -4.550507 -0.000001 0.000010 -1257.752889 -534.937356 -440.611651 -0.000002 0.000002 -11.106502 736.877035 -3.992856 720.349671 0.000004 -0.000001 -12.874295 -337.003801 8.344551 -18.133428 2.431903 0.469604 -2.489395 30.270791 -39.633351 21.072216 0.000001 -0.000003 -18.200201 -12.219045 45.545016 17.808373 0.000002 0.000000 -16.279900 8.804163 20.703982 -5.486182 -1.988000 -0.073500 -2.712995 -45.956525 -38.295249 -20.080642 -0.000004 0.000003 -19.547798 -1846.717479 62.635697 55.621519 -0.000007 -0.000002 -14.881201 2174.812664 26.469391 -330.382971
39.392204 -27.011497 42.005997 4742.298477 24.355913 -2.219531 -0.779992 1.005799 5.403093 -21.451888 -16.556812 -5.747983 0.000008 -0.000000 4.236803 6.167797 -1.688065 -0.223081 -0.000002 0.000003 9.874412 -45.003973 -19.077775 16.244213 0.000005 0.000001 2.173893 -3.361478 2.428060 -6.587033 2.681597 -0.377596 5.432508 0.069474 -3.584809 -39.877732 5.161506 -0.000005 0.000000 116.785785 -128.660492 38.954789 0.000004 -0.000000 -10.869096 1.887063 -6.501856 1.550205 0.000009 -0.000004 -13.344807 -40.403827 -14.604801 11.231550 -2.381900 -1.419599 6.136599 7.519135 7.713274 5.978300 -4.550507 0.000002 0.000003 -1257.532356 -535.058168 -440.754293 0.000002 -0.000004 -11.106498 738.329570 -4.220087 720.400870 0.000016 0.000001 -12.874293 -339.116488 8.456848 -17.482556 2.431906 0.469599 -2.489397 30.481536 -40.477183 21.226304 0.000001 -0.000003 -18.200203 -11.761659 45.196550 17.413198 -0.000006 0.000003 -16.279902 8.563345 21.091862 -4.893673 -1.988001 -0.073498 -2.713001 -45.163314 -38.000987 -20.189399 0.000006 0.000001 -19.547792 -1846.423289 61.308645 53.662208 -0.000007 -0.000002 -14.881202 2174.939869 26.387160 -331.696007
